<svg xmlns="http://www.w3.org/2000/svg" viewBox="0 0 100 100">
    <defs>
        <linearGradient gradientTransform="rotate(30)" id="grad"
            x1="0%" y1="0%" x2="100%" y2="0%">
            <stop offset="0%" style="stop-color: rgb(0, 100, 150); stop-opacity: 1;"></stop>
            <stop offset="100%" style="stop-color: rgb(0, 200, 250); stop-opacity: 1;"></stop>
        </linearGradient>
        <linearGradient gradientTransform="rotate(30)" id="grad2"
            x1="0%" y1="0%" x2="100%" y2="0%">
            <stop offset="0%" style="stop-color: rgb(0, 0, 0); stop-opacity: 1;"></stop>
            <stop offset="100%" style="stop-color: rgb(0, 40, 100); stop-opacity: 1;"></stop>
        </linearGradient>
    </defs>
    <g fill="url(#grad)">
        <circle r="45" cy="50" cx="50" fill="url(#grad2)"></circle>
        <g transform="translate(15, 30)">
            <path d="M 36.84 39.36 L 32.34 39.36 L 32.34 0 L 38.34 0 L 45.9 21 Q 46.62 23.04 47.31 25.11 Q 48 27.18 48.72 29.22 L 48.96 29.22 Q 49.68 27.18 50.31 25.11 Q 50.94 23.04 51.66 21 L 59.1 0 L 65.16 0 L 65.16 39.36 L 60.48 39.36 L 60.48 17.7 Q 60.48 15.06 60.72 11.88 Q 60.96 8.7 61.14 6.06 L 60.9 6.06 L 57.78 15 L 50.34 35.4 L 47.04 35.4 L 39.6 15 L 36.48 6.06 L 36.24 6.06 Q 36.42 8.7 36.63 11.88 Q 36.84 15.06 36.84 17.7 L 36.84 39.36 Z M 0 33.78 L 3.6 31.26 Q 4.92 33.6 6.6 34.65 A 6.956 6.956 0 0 0 10.241 35.699 A 8.317 8.317 0 0 0 10.38 35.7 A 8.233 8.233 0 0 0 12.209 35.51 Q 13.444 35.228 14.334 34.531 A 4.792 4.792 0 0 0 15.12 33.75 Q 16.532 31.986 16.666 28.133 A 23.925 23.925 0 0 0 16.68 27.3 L 16.68 0 L 21.72 0 L 21.72 27.78 A 18.055 18.055 0 0 1 21.335 31.553 A 16.302 16.302 0 0 1 21.09 32.55 A 12.082 12.082 0 0 1 19.995 35.228 A 10.53 10.53 0 0 1 19.17 36.48 A 8.719 8.719 0 0 1 16.222 38.918 A 10.335 10.335 0 0 1 15.81 39.12 A 9.902 9.902 0 0 1 13.421 39.862 Q 12.233 40.08 10.86 40.08 A 13.527 13.527 0 0 1 6.153 39.301 Q 2.652 38.011 0.475 34.582 A 15.275 15.275 0 0 1 0 33.78 Z" vector-effect="non-scaling-stroke"/>
        </g>
    </g>
</svg>